<mxfile host="app.diagrams.net" agent="Mozilla/5.0 (Windows NT 10.0; Win64; x64) AppleWebKit/537.36 (KHTML, like Gecko) Chrome/127.0.0.0 Safari/537.36" version="24.7.6">
  <diagram name="Page-1" id="vdqN5m6ySMCwHAxwxoht">
    <mxGraphModel dx="1050" dy="557" grid="1" gridSize="10" guides="1" tooltips="1" connect="1" arrows="1" fold="1" page="1" pageScale="1" pageWidth="850" pageHeight="1100" math="0" shadow="0">
      <root>
        <mxCell id="0" />
        <mxCell id="1" parent="0" />
        <mxCell id="qlQNnC0HPWKh5QGIeAxc-1" value="" style="rounded=1;whiteSpace=wrap;html=1;fillColor=none;arcSize=6;" vertex="1" parent="1">
          <mxGeometry x="20" y="40" width="810" height="270" as="geometry" />
        </mxCell>
        <mxCell id="qlQNnC0HPWKh5QGIeAxc-2" value="&lt;b&gt;Data streams&lt;/b&gt;" style="text;html=1;align=center;verticalAlign=middle;whiteSpace=wrap;rounded=0;" vertex="1" parent="1">
          <mxGeometry x="360" y="60" width="105" height="30" as="geometry" />
        </mxCell>
        <mxCell id="qlQNnC0HPWKh5QGIeAxc-3" value="" style="shape=mxgraph.gcp2.doubleRect;strokeColor=#dddddd;shadow=1;strokeWidth=1;" vertex="1" parent="1">
          <mxGeometry x="40" y="120" width="188" height="68" as="geometry" />
        </mxCell>
        <mxCell id="qlQNnC0HPWKh5QGIeAxc-4" value="&lt;font color=&quot;#000000&quot;&gt;Google Analytics API&lt;/font&gt;" style="sketch=0;dashed=0;connectable=0;html=1;fillColor=#5184F3;strokeColor=none;shape=mxgraph.gcp2.google_analytics_360;part=1;labelPosition=right;verticalLabelPosition=middle;align=left;verticalAlign=middle;spacingLeft=5;fontColor=#999999;fontSize=12;" vertex="1" parent="qlQNnC0HPWKh5QGIeAxc-3">
          <mxGeometry width="45" height="44.1" relative="1" as="geometry">
            <mxPoint x="5" y="7.45" as="offset" />
          </mxGeometry>
        </mxCell>
        <mxCell id="qlQNnC0HPWKh5QGIeAxc-8" value="" style="group" vertex="1" connectable="0" parent="1">
          <mxGeometry x="270" y="120" width="120" height="68" as="geometry" />
        </mxCell>
        <mxCell id="qlQNnC0HPWKh5QGIeAxc-6" value="" style="rounded=1;whiteSpace=wrap;html=1;" vertex="1" parent="qlQNnC0HPWKh5QGIeAxc-8">
          <mxGeometry width="120" height="68" as="geometry" />
        </mxCell>
        <mxCell id="qlQNnC0HPWKh5QGIeAxc-5" value="" style="shape=image;html=1;verticalAlign=top;verticalLabelPosition=bottom;labelBackgroundColor=#ffffff;imageAspect=0;aspect=fixed;image=https://cdn2.iconfinder.com/data/icons/mobile-and-internet-business/285/qr_code-128.png" vertex="1" parent="qlQNnC0HPWKh5QGIeAxc-8">
          <mxGeometry x="10" y="18.133333333333333" width="38" height="38" as="geometry" />
        </mxCell>
        <mxCell id="qlQNnC0HPWKh5QGIeAxc-7" value="Qrfy" style="text;html=1;align=center;verticalAlign=middle;whiteSpace=wrap;rounded=0;" vertex="1" parent="qlQNnC0HPWKh5QGIeAxc-8">
          <mxGeometry x="48" y="18.133333333333333" width="60" height="34" as="geometry" />
        </mxCell>
        <mxCell id="qlQNnC0HPWKh5QGIeAxc-10" value="" style="group" vertex="1" connectable="0" parent="1">
          <mxGeometry x="440" y="120" width="160" height="68" as="geometry" />
        </mxCell>
        <mxCell id="qlQNnC0HPWKh5QGIeAxc-11" value="" style="rounded=1;whiteSpace=wrap;html=1;" vertex="1" parent="qlQNnC0HPWKh5QGIeAxc-10">
          <mxGeometry width="160" height="68" as="geometry" />
        </mxCell>
        <mxCell id="qlQNnC0HPWKh5QGIeAxc-13" value="TraderTracker.com" style="text;html=1;align=center;verticalAlign=middle;whiteSpace=wrap;rounded=0;" vertex="1" parent="qlQNnC0HPWKh5QGIeAxc-10">
          <mxGeometry x="64" y="18.133333333333333" width="80" height="34" as="geometry" />
        </mxCell>
        <mxCell id="qlQNnC0HPWKh5QGIeAxc-14" value="" style="html=1;verticalLabelPosition=bottom;align=center;labelBackgroundColor=#ffffff;verticalAlign=top;strokeWidth=2;strokeColor=#0080F0;shadow=0;dashed=0;shape=mxgraph.ios7.icons.shopping_cart;" vertex="1" parent="qlQNnC0HPWKh5QGIeAxc-10">
          <mxGeometry x="10" y="22.38" width="40" height="25.5" as="geometry" />
        </mxCell>
        <mxCell id="qlQNnC0HPWKh5QGIeAxc-15" value="" style="group" vertex="1" connectable="0" parent="1">
          <mxGeometry x="635" y="120" width="160" height="68" as="geometry" />
        </mxCell>
        <mxCell id="qlQNnC0HPWKh5QGIeAxc-16" value="" style="rounded=1;whiteSpace=wrap;html=1;" vertex="1" parent="qlQNnC0HPWKh5QGIeAxc-15">
          <mxGeometry width="160" height="68" as="geometry" />
        </mxCell>
        <mxCell id="qlQNnC0HPWKh5QGIeAxc-17" value="Our own database" style="text;html=1;align=center;verticalAlign=middle;whiteSpace=wrap;rounded=0;" vertex="1" parent="qlQNnC0HPWKh5QGIeAxc-15">
          <mxGeometry x="40" y="18.13" width="104" height="34" as="geometry" />
        </mxCell>
        <mxCell id="qlQNnC0HPWKh5QGIeAxc-20" value="" style="image;html=1;image=img/lib/clip_art/computers/Database_128x128.png" vertex="1" parent="qlQNnC0HPWKh5QGIeAxc-15">
          <mxGeometry y="18.129999999999995" width="40" height="30" as="geometry" />
        </mxCell>
        <mxCell id="qlQNnC0HPWKh5QGIeAxc-21" value="JavaScript is used to consume APIs" style="rounded=0;whiteSpace=wrap;html=1;fillColor=none;" vertex="1" parent="1">
          <mxGeometry x="80" y="220" width="90" height="60" as="geometry" />
        </mxCell>
        <mxCell id="qlQNnC0HPWKh5QGIeAxc-22" value="JavaScript is used to consume APIs" style="rounded=0;whiteSpace=wrap;html=1;fillColor=none;" vertex="1" parent="1">
          <mxGeometry x="285" y="220" width="90" height="60" as="geometry" />
        </mxCell>
        <mxCell id="qlQNnC0HPWKh5QGIeAxc-23" value="JavaScript is used to consume APIs" style="rounded=0;whiteSpace=wrap;html=1;fillColor=none;" vertex="1" parent="1">
          <mxGeometry x="670" y="220" width="90" height="60" as="geometry" />
        </mxCell>
        <mxCell id="qlQNnC0HPWKh5QGIeAxc-24" style="edgeStyle=orthogonalEdgeStyle;rounded=0;orthogonalLoop=1;jettySize=auto;html=1;exitX=0.5;exitY=1;exitDx=0;exitDy=0;entryX=0.591;entryY=0.043;entryDx=0;entryDy=0;entryPerimeter=0;" edge="1" parent="1" source="qlQNnC0HPWKh5QGIeAxc-3" target="qlQNnC0HPWKh5QGIeAxc-21">
          <mxGeometry relative="1" as="geometry" />
        </mxCell>
        <mxCell id="qlQNnC0HPWKh5QGIeAxc-25" style="edgeStyle=orthogonalEdgeStyle;rounded=0;orthogonalLoop=1;jettySize=auto;html=1;exitX=0.5;exitY=1;exitDx=0;exitDy=0;entryX=0.5;entryY=0;entryDx=0;entryDy=0;" edge="1" parent="1" source="qlQNnC0HPWKh5QGIeAxc-6" target="qlQNnC0HPWKh5QGIeAxc-22">
          <mxGeometry relative="1" as="geometry" />
        </mxCell>
        <mxCell id="qlQNnC0HPWKh5QGIeAxc-26" style="edgeStyle=orthogonalEdgeStyle;rounded=0;orthogonalLoop=1;jettySize=auto;html=1;exitX=0.5;exitY=1;exitDx=0;exitDy=0;entryX=0.5;entryY=0;entryDx=0;entryDy=0;" edge="1" parent="1" source="qlQNnC0HPWKh5QGIeAxc-16" target="qlQNnC0HPWKh5QGIeAxc-23">
          <mxGeometry relative="1" as="geometry" />
        </mxCell>
        <mxCell id="qlQNnC0HPWKh5QGIeAxc-27" value="PHP is used to consume APIs, SOP Client" style="rounded=0;whiteSpace=wrap;html=1;fillColor=none;" vertex="1" parent="1">
          <mxGeometry x="475" y="220" width="90" height="60" as="geometry" />
        </mxCell>
        <mxCell id="qlQNnC0HPWKh5QGIeAxc-28" style="edgeStyle=orthogonalEdgeStyle;rounded=0;orthogonalLoop=1;jettySize=auto;html=1;exitX=0.5;exitY=1;exitDx=0;exitDy=0;entryX=0.5;entryY=0;entryDx=0;entryDy=0;" edge="1" parent="1" source="qlQNnC0HPWKh5QGIeAxc-11" target="qlQNnC0HPWKh5QGIeAxc-27">
          <mxGeometry relative="1" as="geometry" />
        </mxCell>
        <mxCell id="qlQNnC0HPWKh5QGIeAxc-29" value="" style="rounded=1;whiteSpace=wrap;html=1;fillColor=none;arcSize=6;" vertex="1" parent="1">
          <mxGeometry x="80" y="410" width="720" height="270" as="geometry" />
        </mxCell>
        <mxCell id="qlQNnC0HPWKh5QGIeAxc-30" value="Our central server" style="text;html=1;align=center;verticalAlign=middle;whiteSpace=wrap;rounded=0;" vertex="1" parent="1">
          <mxGeometry x="90" y="410" width="122" height="30" as="geometry" />
        </mxCell>
        <mxCell id="qlQNnC0HPWKh5QGIeAxc-44" style="edgeStyle=orthogonalEdgeStyle;rounded=0;orthogonalLoop=1;jettySize=auto;html=1;exitX=0.75;exitY=0;exitDx=0;exitDy=0;entryX=0.5;entryY=1;entryDx=0;entryDy=0;" edge="1" parent="1" source="qlQNnC0HPWKh5QGIeAxc-31" target="qlQNnC0HPWKh5QGIeAxc-35">
          <mxGeometry relative="1" as="geometry" />
        </mxCell>
        <mxCell id="qlQNnC0HPWKh5QGIeAxc-31" value="" style="rounded=1;whiteSpace=wrap;html=1;fillColor=none;arcSize=6;" vertex="1" parent="1">
          <mxGeometry x="250" y="810" width="350" height="270" as="geometry" />
        </mxCell>
        <mxCell id="qlQNnC0HPWKh5QGIeAxc-32" value="Edge&amp;nbsp; Studio" style="text;html=1;align=center;verticalAlign=middle;whiteSpace=wrap;rounded=0;" vertex="1" parent="1">
          <mxGeometry x="238" y="820" width="122" height="30" as="geometry" />
        </mxCell>
        <mxCell id="qlQNnC0HPWKh5QGIeAxc-40" style="edgeStyle=orthogonalEdgeStyle;rounded=0;orthogonalLoop=1;jettySize=auto;html=1;exitX=0.25;exitY=0;exitDx=0;exitDy=0;entryX=0.25;entryY=1;entryDx=0;entryDy=0;" edge="1" parent="1" source="qlQNnC0HPWKh5QGIeAxc-33" target="qlQNnC0HPWKh5QGIeAxc-22">
          <mxGeometry relative="1" as="geometry">
            <Array as="points">
              <mxPoint x="283" y="365" />
              <mxPoint x="308" y="365" />
            </Array>
          </mxGeometry>
        </mxCell>
        <mxCell id="qlQNnC0HPWKh5QGIeAxc-42" style="edgeStyle=orthogonalEdgeStyle;rounded=0;orthogonalLoop=1;jettySize=auto;html=1;exitX=0.25;exitY=0;exitDx=0;exitDy=0;entryX=0.75;entryY=1;entryDx=0;entryDy=0;" edge="1" parent="1" source="qlQNnC0HPWKh5QGIeAxc-33" target="qlQNnC0HPWKh5QGIeAxc-21">
          <mxGeometry relative="1" as="geometry">
            <Array as="points">
              <mxPoint x="283" y="350" />
              <mxPoint x="148" y="350" />
            </Array>
          </mxGeometry>
        </mxCell>
        <mxCell id="qlQNnC0HPWKh5QGIeAxc-43" style="edgeStyle=orthogonalEdgeStyle;rounded=0;orthogonalLoop=1;jettySize=auto;html=1;exitX=0.75;exitY=0;exitDx=0;exitDy=0;entryX=0.25;entryY=1;entryDx=0;entryDy=0;" edge="1" parent="1" source="qlQNnC0HPWKh5QGIeAxc-33" target="qlQNnC0HPWKh5QGIeAxc-23">
          <mxGeometry relative="1" as="geometry">
            <Array as="points">
              <mxPoint x="670" y="450" />
              <mxPoint x="670" y="365" />
              <mxPoint x="693" y="365" />
            </Array>
          </mxGeometry>
        </mxCell>
        <mxCell id="qlQNnC0HPWKh5QGIeAxc-33" value="Layer to manage and format query and response formats for data streams&amp;nbsp;&amp;nbsp;" style="rounded=1;whiteSpace=wrap;html=1;" vertex="1" parent="1">
          <mxGeometry x="120" y="450" width="650" height="30" as="geometry" />
        </mxCell>
        <mxCell id="qlQNnC0HPWKh5QGIeAxc-35" value="Requests Receiver" style="rounded=1;whiteSpace=wrap;html=1;" vertex="1" parent="1">
          <mxGeometry x="450" y="630" width="160" height="30" as="geometry" />
        </mxCell>
        <mxCell id="qlQNnC0HPWKh5QGIeAxc-36" value="Request Response&amp;nbsp;" style="rounded=1;whiteSpace=wrap;html=1;" vertex="1" parent="1">
          <mxGeometry x="630" y="630" width="160" height="30" as="geometry" />
        </mxCell>
        <mxCell id="qlQNnC0HPWKh5QGIeAxc-37" style="edgeStyle=orthogonalEdgeStyle;rounded=0;orthogonalLoop=1;jettySize=auto;html=1;exitX=0.5;exitY=1;exitDx=0;exitDy=0;entryX=0.889;entryY=-0.06;entryDx=0;entryDy=0;entryPerimeter=0;" edge="1" parent="1" source="qlQNnC0HPWKh5QGIeAxc-23" target="qlQNnC0HPWKh5QGIeAxc-33">
          <mxGeometry relative="1" as="geometry" />
        </mxCell>
        <mxCell id="qlQNnC0HPWKh5QGIeAxc-39" style="edgeStyle=orthogonalEdgeStyle;rounded=0;orthogonalLoop=1;jettySize=auto;html=1;exitX=0.5;exitY=1;exitDx=0;exitDy=0;entryX=0.324;entryY=0.02;entryDx=0;entryDy=0;entryPerimeter=0;" edge="1" parent="1" source="qlQNnC0HPWKh5QGIeAxc-22" target="qlQNnC0HPWKh5QGIeAxc-33">
          <mxGeometry relative="1" as="geometry" />
        </mxCell>
        <mxCell id="qlQNnC0HPWKh5QGIeAxc-41" style="edgeStyle=orthogonalEdgeStyle;rounded=0;orthogonalLoop=1;jettySize=auto;html=1;exitX=0.5;exitY=1;exitDx=0;exitDy=0;entryX=0.185;entryY=0.02;entryDx=0;entryDy=0;entryPerimeter=0;" edge="1" parent="1" source="qlQNnC0HPWKh5QGIeAxc-21" target="qlQNnC0HPWKh5QGIeAxc-33">
          <mxGeometry relative="1" as="geometry" />
        </mxCell>
        <mxCell id="qlQNnC0HPWKh5QGIeAxc-45" style="edgeStyle=orthogonalEdgeStyle;rounded=0;orthogonalLoop=1;jettySize=auto;html=1;exitX=0.5;exitY=1;exitDx=0;exitDy=0;entryX=0.834;entryY=-0.001;entryDx=0;entryDy=0;entryPerimeter=0;" edge="1" parent="1" source="qlQNnC0HPWKh5QGIeAxc-36" target="qlQNnC0HPWKh5QGIeAxc-31">
          <mxGeometry relative="1" as="geometry" />
        </mxCell>
      </root>
    </mxGraphModel>
  </diagram>
</mxfile>
